<?xml version="1.0" encoding="UTF-8" standalone="no"?>
<!-- Created with Inkscape (http://www.inkscape.org/) -->

<svg
   xmlns:dc="http://purl.org/dc/elements/1.1/"
   xmlns:cc="http://creativecommons.org/ns#"
   xmlns:rdf="http://www.w3.org/1999/02/22-rdf-syntax-ns#"
   xmlns:svg="http://www.w3.org/2000/svg"
   xmlns="http://www.w3.org/2000/svg"
   xmlns:sodipodi="http://sodipodi.sourceforge.net/DTD/sodipodi-0.dtd"
   xmlns:inkscape="http://www.inkscape.org/namespaces/inkscape"
   width="172.95795mm"
   height="168.16168mm"
   viewBox="0 0 612.84312 595.84848"
   id="svg4772"
   version="1.1"
   inkscape:version="0.91 r13725"
   sodipodi:docname="flower.svg">
  <defs
     id="defs4774" />
  <sodipodi:namedview
     id="base"
     pagecolor="#ffffff"
     bordercolor="#666666"
     borderopacity="1.0"
     inkscape:pageopacity="0.0"
     inkscape:pageshadow="2"
     inkscape:zoom="0.35"
     inkscape:cx="-205.78777"
     inkscape:cy="211.40865"
     inkscape:document-units="px"
     inkscape:current-layer="layer1"
     showgrid="false"
     fit-margin-top="0"
     fit-margin-left="0"
     fit-margin-right="0"
     fit-margin-bottom="0"
     inkscape:window-width="1366"
     inkscape:window-height="705"
     inkscape:window-x="-8"
     inkscape:window-y="-8"
     inkscape:window-maximized="1" />
  <metadata
     id="metadata4777">
    <rdf:RDF>
      <cc:Work
         rdf:about="">
        <dc:format>image/svg+xml</dc:format>
        <dc:type
           rdf:resource="http://purl.org/dc/dcmitype/StillImage" />
        <dc:title></dc:title>
      </cc:Work>
    </rdf:RDF>
  </metadata>
  <g
     inkscape:label="Layer 1"
     inkscape:groupmode="layer"
     id="layer1"
     transform="translate(-66.502054,-147.92238)">
    <path
       style="fill:#ffffff;fill-opacity:1"
       d="m 239.52426,742.99687 c -9.56807,-1.5343 -20.26443,-4.89161 -30.25473,-9.49617 -27.14889,-12.51304 -54.90643,-41.29599 -64.5611,-66.9461 -14.45243,-38.39655 -6.40936,-77.55564 23.03016,-112.12649 15.6022,-18.32167 30.32164,-27.37289 62.43998,-38.3953 11.34375,-3.89297 21.12807,-7.56585 21.74296,-8.16197 1.36589,-1.32423 -1.48659,-8.72294 -3.36301,-8.72294 -0.7242,0 -9.79659,2.77666 -20.16085,6.17036 -22.62141,7.40721 -36.03974,9.43626 -55.7191,8.42554 -20.94774,-1.07586 -39.56573,-6.407 -55.97349,-16.02764 -3.93333,-2.30629 -12.77651,-9.81826 -19.651511,-16.69326 -9.63807,-9.63806 -13.69748,-14.78955 -17.73019,-22.5 -29.50912,-56.42081 -6.05594,-132.60746 49.605191,-161.14038 13.02192,-6.67526 21.00889,-9.0286 36.50744,-10.75678 31.83953,-3.55033 68.27636,9.12226 94.10705,32.73005 3.75812,3.43471 12.75381,14.04281 19.99041,23.57357 7.23661,9.53075 13.74192,17.68985 14.45626,18.13134 1.52896,0.94495 7.43884,-2.63751 7.43884,-4.5093 0,-0.70888 -4.88023,-8.14904 -10.84495,-16.53369 -22.81494,-32.07107 -30.40505,-53.03899 -30.40505,-83.99481 0,-31.91689 9.66412,-55.66656 31.2817,-76.875 21.31555,-20.91214 48.22237,-31.15913 81.99206,-31.22524 46.41248,-0.0908 83.74194,21.53919 102.79724,59.56445 6.61491,13.20022 9.10955,24.1706 9.84211,43.28159 0.739,19.27879 -0.64442,30.83831 -5.56555,46.5042 -4.5004,14.32656 -9.07526,22.81323 -22.3645,41.48756 -6.45319,9.06816 -11.73306,17.30035 -11.73306,18.29374 0,2.29086 6.18574,6.42944 7.507,5.02257 0.54436,-0.57963 6.14467,-7.99552 12.44514,-16.47974 14.45765,-19.46873 19.47613,-24.89116 31.22533,-33.73865 47.09744,-35.46579 106.04082,-34.27601 144.38915,2.91452 16.80729,16.29984 28.129,35.48666 34.0475,57.70003 2.8993,10.88167 3.28003,14.67822 3.30178,32.92497 0.0208,17.42544 -0.40146,22.1763 -2.72183,30.625 -13.76955,50.13644 -60.02483,80.67926 -117.69407,77.71456 -14.86308,-0.76409 -19.78578,-1.79528 -43.21499,-9.05257 -7.61199,-2.35784 -14.97482,-4.28699 -16.36185,-4.28699 -2.77104,0 -5.72609,4.98731 -4.31135,7.2764 0.48308,0.78165 10.10333,4.83525 21.37834,9.00801 11.275,4.17277 24.18659,9.53221 28.69242,11.90989 23.1775,12.23054 43.86279,34.00469 54.41399,57.27834 7.381,16.28086 8.73955,23.15454 8.67709,43.90236 -0.0526,17.4932 -0.31239,19.51809 -3.87459,30.209 -4.76606,14.30391 -10.94976,25.45516 -20.54155,37.04319 -17.7282,21.41777 -40.94471,36.86312 -65.48251,43.56384 -13.4477,3.67224 -42.13044,4.04525 -54.375,0.70709 -37.22023,-10.14707 -69.82879,-43.27149 -81.48406,-82.77312 -2.12654,-7.20721 -2.71922,-13.70897 -3.36135,-36.875 l -0.77959,-28.125 -4.5027,-0.37694 -4.50269,-0.37694 -0.80981,7.7478 c -0.44539,4.26129 -0.8098,12.18747 -0.8098,17.6137 0,23.33966 -4.7703,46.92166 -12.67079,62.63812 -14.99839,29.8363 -39.88087,51.42356 -68.79342,59.68297 -10.17707,2.90726 -35.7417,4.3009 -46.6901,2.54526 z M 394.34541,564.85191 c 28.40863,-5.43546 54.20566,-24.06407 68.6922,-49.60417 10.29991,-18.15899 14.20666,-35.44792 12.95925,-57.34984 -1.61357,-28.33059 -11.63477,-49.97961 -31.91972,-68.95691 -20.91855,-19.57006 -40.82128,-27.23678 -70.77357,-27.26263 -29.80886,-0.0258 -52.39733,9.08208 -72.5799,29.26464 -20.39139,20.3914 -29.59809,43.44654 -29.48276,73.8299 0.07,18.43374 2.83741,30.32723 10.76172,46.25 11.00675,22.11649 31.50823,40.78195 54.30943,49.44573 15.7818,5.99661 40.02927,7.82803 58.03335,4.38328 z"
       id="path5331"
       inkscape:connector-curvature="0" />
  </g>
</svg>
