<?xml version="1.0" encoding="UTF-8" standalone="no"?>
<!-- Generator: Adobe Illustrator 18.0.0, SVG Export Plug-In . SVG Version: 6.00 Build 0)  -->

<svg
   xmlns:dc="http://purl.org/dc/elements/1.1/"
   xmlns:cc="http://creativecommons.org/ns#"
   xmlns:rdf="http://www.w3.org/1999/02/22-rdf-syntax-ns#"
   xmlns:svg="http://www.w3.org/2000/svg"
   xmlns="http://www.w3.org/2000/svg"
   xmlns:sodipodi="http://sodipodi.sourceforge.net/DTD/sodipodi-0.dtd"
   xmlns:inkscape="http://www.inkscape.org/namespaces/inkscape"
   version="1.1"
   id="Capa_1"
   x="0px"
   y="0px"
   viewBox="0 0 483.439 483.439"
   style="enable-background:new 0 0 483.439 483.439;"
   xml:space="preserve"
   inkscape:version="0.91 r13725"
   sodipodi:docname="workflow.svg"><metadata
     id="metadata5984"><rdf:RDF><cc:Work
         rdf:about=""><dc:format>image/svg+xml</dc:format><dc:type
           rdf:resource="http://purl.org/dc/dcmitype/StillImage" /></cc:Work></rdf:RDF></metadata><defs
     id="defs5982" /><sodipodi:namedview
     pagecolor="#ffffff"
     bordercolor="#666666"
     borderopacity="1"
     objecttolerance="10"
     gridtolerance="10"
     guidetolerance="10"
     inkscape:pageopacity="0"
     inkscape:pageshadow="2"
     inkscape:window-width="1366"
     inkscape:window-height="705"
     id="namedview5980"
     showgrid="false"
     inkscape:zoom="0.48816914"
     inkscape:cx="241.7195"
     inkscape:cy="241.7195"
     inkscape:window-x="-8"
     inkscape:window-y="-8"
     inkscape:window-maximized="1"
     inkscape:current-layer="Capa_1" /><g
     id="g5940"
     style="fill:#ffffff;fill-opacity:1"><path
       d="M468.656,362.135l-10.272-100.581c-0.418-13.636-11.643-24.603-25.374-24.603h-49.616   c24.935-6.423,43.411-29.099,43.411-56.01c0-20.153-10.367-37.921-26.042-48.278c2.959-4.108,4.636-8.857,4.636-13.96   c0-16.066-16.573-28.652-37.731-28.652s-37.732,12.586-37.732,28.652c0,5.6,2.018,10.773,5.536,15.142   c-14.711,10.495-24.331,27.688-24.331,47.097c0,26.911,18.477,49.587,43.411,56.01h-49.618c-13.734,0-24.956,10.967-25.37,24.603   l-10.275,100.58c-0.045,0.44-0.067,0.88-0.067,1.321c0,13.991,11.384,25.379,25.376,25.385c0.002,0,0.004,0,0.006,0l148.74-0.001   c13.995,0,25.382-11.387,25.382-25.383C468.724,363.015,468.701,362.574,468.656,362.135z M337.174,182.274l58.057-19.302   c3.513,5.118,5.574,11.306,5.574,17.969c0,17.551-14.28,31.83-31.832,31.83C351.867,212.771,337.875,199.209,337.174,182.274z    M442.593,362.839l-147.242,0.001l10.186-99.889H432.41L442.593,362.839z"
       id="path5942"
       style="fill:#ffffff;fill-opacity:1" /><path
       d="M217.496,363.224V243.412c-0.004-14.123-11.496-25.613-25.618-25.613l-63.222-0.001   c26.343-5.764,46.128-29.265,46.128-57.313c0-32.355-26.322-58.678-58.678-58.678c-32.355,0-58.678,26.322-58.678,58.678   c0,28.047,19.784,51.548,46.127,57.313l-63.223-0.001c-14.122,0-25.614,11.49-25.618,25.616l0.002,119.809   c0,14.124,11.49,25.616,25.616,25.618H191.88C206.005,388.84,217.496,377.349,217.496,363.224z M83.429,160.485   c0-18.019,14.659-32.678,32.678-32.678c18.019,0,32.678,14.659,32.678,32.678c0,18.019-14.659,32.678-32.678,32.678   C98.088,193.163,83.429,178.504,83.429,160.485z M191.496,362.84H40.717l-0.002-119.043l52.211,0.001l9.402,11.78l-12.19,72.486   c-0.646,3.843,0.466,7.773,3.029,10.708l13.148,15.053c2.469,2.826,6.038,4.448,9.791,4.448c3.752,0,7.322-1.621,9.791-4.447   l13.148-15.052c2.564-2.936,3.676-6.865,3.029-10.709l-12.19-72.487l9.402-11.78l52.209,0.001V362.84z"
       id="path5944"
       style="fill:#ffffff;fill-opacity:1" /><path
       d="M111.253,70.915c2.094,4.567,6.632,7.52,11.656,7.582l35.522,0.44c0.055,0.001,0.109,0.001,0.164,0.001   c7.104,0,12.908-5.715,12.996-12.839c0.089-7.179-5.658-13.071-12.838-13.16l-3.627-0.045C178.131,35.569,206.273,26,235.656,26   c39.669,0,77.077,17.444,102.633,47.86c4.619,5.498,12.818,6.209,18.315,1.591c5.497-4.618,6.209-12.818,1.591-18.315   C327.689,20.825,283.024,0,235.656,0c-36.359,0-71.118,12.282-99.111,34.408l0.207-8.717c0.171-7.178-5.51-13.135-12.687-13.305   c-0.105-0.003-0.21-0.004-0.314-0.004c-7.036,0-12.822,5.619-12.99,12.691l-0.683,40.268   C110.054,67.229,110.436,69.133,111.253,70.915z"
       id="path5946"
       style="fill:#ffffff;fill-opacity:1" /><path
       d="M360.06,412.523c-2.094-4.567-6.632-7.52-11.656-7.582l-35.522-0.44c-0.055-0.001-0.109-0.001-0.164-0.001   c-7.105,0-12.908,5.715-12.996,12.839c-0.089,7.179,5.658,13.071,12.838,13.16l3.627,0.045   c-23.005,17.325-51.147,26.895-80.53,26.895c-39.669,0-77.077-17.444-102.633-47.86c-4.617-5.496-12.817-6.208-18.315-1.591   c-5.497,4.618-6.209,12.818-1.591,18.315c30.507,36.311,75.171,57.136,122.539,57.136c36.242,0,70.893-12.203,98.84-34.194   l-0.105,4.447c-0.171,7.178,5.51,13.135,12.688,13.305c0.105,0.003,0.21,0.004,0.314,0.004c7.036,0,12.822-5.619,12.99-12.691   l0.855-36.06h-0.008C361.277,416.311,360.898,414.353,360.06,412.523z"
       id="path5948"
       style="fill:#ffffff;fill-opacity:1" /></g><g
     id="g5950" /><g
     id="g5952" /><g
     id="g5954" /><g
     id="g5956" /><g
     id="g5958" /><g
     id="g5960" /><g
     id="g5962" /><g
     id="g5964" /><g
     id="g5966" /><g
     id="g5968" /><g
     id="g5970" /><g
     id="g5972" /><g
     id="g5974" /><g
     id="g5976" /><g
     id="g5978" /></svg>